[Header]
FileType HTR
DataType HTRS
FileVersion 1
NumSegments 22
NumFrames 4
DataFrameRate 24
EulerRotationOrder ZYX
CalibrationUnits mm
RotationUnits Degrees
GlobalAxisofGravity Y
BoneLengthAxis Y
ScaleFactor 1.0
[SegmentNames&Hierarchy]
reference	GLOBAL
Hips	reference
Spine	Hips
Spine1	Spine
Neck	Spine1
Head	Neck
LeftShoulder	Spine1
LeftArm	LeftShoulder
LeftForeArm	LeftArm
LeftHand	LeftForeArm
RightShoulder	Spine1
RightArm	RightShoulder
RightForeArm	RightArm
RightHand	RightForeArm
LeftUpLeg	Hips
LeftLeg	LeftUpLeg
LeftFoot	LeftLeg
LeftToeBase	LeftFoot
RightUpLeg	Hips
RightLeg	RightUpLeg
RightFoot	RightLeg
RightToeBase	RightFoot
[BasePosition]
reference	0	0	0	0	0	0	1
Hips	0	0	0	0	0	0	1
Spine	0	0	0	0	-0	90	1
Spine1	0	0	0	0	0	0	1
Neck	0	0	0	-7.352430803	-7.352430803	90	1
Head	0	0	0	0	-0	90	1
LeftShoulder	0	0	0	0	0	0	1
LeftArm	0	0	0	0	0	0	1
LeftForeArm	0	0	0	0	0	0	1
LeftHand	0	0	0	0	0	0	1
RightShoulder	0	0	0	0	-0	180	1
RightArm	0	0	0	0	-0	180	1
RightForeArm	0	0	0	0	-0	180	1
RightHand	0	0	0	0	-0	180	1
LeftUpLeg	0	0	0	0	-0	-90	1
LeftLeg	0	0	0	0	-0	-90	1
LeftFoot	0	0	0	66.57150701	-66.57150701	-90	1
LeftToeBase	0	0	0	0	-90	0	1
RightUpLeg	0	0	0	0	-0	-90	1
RightLeg	0	0	0	0	-0	-90	1
RightFoot	0	0	0	66.57150701	-66.57150701	-90	1
RightToeBase	0	0	0	0	-90	0	1
[reference]
1	0	0	0	0	-0	0	1.0
2	0	0	0	0	-0	0	1.0
3	0	0	0	0	-0	0	1.0
4	0	0	0	0	-0	0	1.0
[Hips]
1	1.112269998	8.854089737	0.2035400122	2.322418213	-124.0359497	2.296142578	1.0
2	1.112269998	8.854089737	0.2035400122	2.260509014	-124.3108521	2.416110277	1.0
3	1.112269998	8.854089737	0.2035400122	2.240420818	-124.7087097	2.44045949	1.0
4	1.112269998	8.854089737	0.2035400122	2.353334427	-124.8861084	2.515987396	1.0
[Spine]
1	0	0.7478299737	0	-14.5460701	2.022292137	-89.72842407	1.0
2	0	0.7478299737	0	-14.69645023	1.859176636	-89.81910706	1.0
3	0	0.7478299737	0	-14.79071617	1.872866869	-89.85114288	1.0
4	0	0.7478299737	0	-14.91043568	1.733843803	-89.77547455	1.0
[Spine1]
1	0	2.049309969	0	12.13924122	0.7026966214	-0.3782125711	1.0
2	0	2.049309969	0	12.17028522	0.6335371733	-0.2102028579	1.0
3	0	2.049309969	0	12.18164253	0.6455863714	-0.2275175452	1.0
4	0	2.049309969	0	12.05642891	0.603556335	-0.3332721889	1.0
[Neck]
1	0	2.231709957	0	-5.234526634	9.101058006	-84.84104156	1.0
2	0	2.231709957	0	-5.393055439	9.404535294	-84.6413269	1.0
3	0	2.231709957	0	-5.876225948	9.746015549	-84.50839233	1.0
4	0	2.231709957	0	-5.064937115	9.540452003	-84.65808105	1.0
[Head]
1	0	1.413589954	0.1823999882	-5.211127758	2.281965017	-94.65969086	1.0
2	0	1.413589954	0.1823999882	-4.600931168	2.618159294	-94.61668396	1.0
3	0	1.413589954	0.1823999882	-3.330756664	3.02654171	-94.79170227	1.0
4	0	1.413589954	0.1823999882	-4.776691437	2.748258829	-94.4729538	1.0
[LeftShoulder]
1	0.3649300039	1.825889945	-0.04271000251	-10.08196259	-7.048160553	1.984910011	1.0
2	0.3649300039	1.825889945	-0.04271000251	-10.25718212	-6.971775532	1.795710444	1.0
3	0.3649300039	1.825889945	-0.04271000251	-10.40964222	-7.15274477	1.824488401	1.0
4	0.3649300039	1.825889945	-0.04271000251	-10.42168427	-7.083018303	1.745770216	1.0
[LeftArm]
1	1.24003005	0	0	34.1124382	8.977250099	-79.47296143	1.0
2	1.24003005	0	0	34.88700104	8.731759071	-79.301651	1.0
3	1.24003005	0	0	35.42024231	8.658122063	-79.27500916	1.0
4	1.24003005	0	0	35.82976532	8.444850922	-79.08892059	1.0
[LeftForeArm]
1	2.847419977	0	0	-12.01872063	-13.53624535	-3.508274555	1.0
2	2.847419977	0	0	-12.30737019	-13.53526974	-3.343694687	1.0
3	2.847419977	0	0	-12.44952488	-13.59862423	-3.065835714	1.0
4	2.847419977	0	0	-12.46031094	-13.69299221	-2.937403679	1.0
[LeftHand]
1	2.258270025	0	0	-12.2536993	-5.459638596	-3.804111242	1.0
2	2.258270025	0	0	-12.50485802	-5.722956657	-3.987276316	1.0
3	2.258270025	0	0	-12.61358643	-5.750302792	-4.010773659	1.0
4	2.258270025	0	0	-12.6321907	-5.50962162	-3.757368565	1.0
[RightShoulder]
1	-0.3646599948	1.825889945	-0.04271000251	-7.533819675	9.222164154	-179.5369415	1.0
2	-0.3646599948	1.825889945	-0.04271000251	-7.527066231	9.34254837	-179.6685638	1.0
3	-0.3646599948	1.825889945	-0.04271000251	-7.546811104	9.244862556	-179.655304	1.0
4	-0.3646599948	1.825889945	-0.04271000251	-7.579833031	9.287291527	-179.6478577	1.0
[RightArm]
1	-1.24003005	0	0	46.58309174	-1.361819029	-99.98855591	1.0
2	-1.24003005	0	0	46.69337082	-1.624242425	-99.95462036	1.0
3	-1.24003005	0	0	46.84488678	-1.8737185	-99.95849609	1.0
4	-1.24003005	0	0	46.62566376	-2.200752735	-99.86920166	1.0
[RightForeArm]
1	-2.847419977	0	0	1.551047683	14.82155228	178.3946838	1.0
2	-2.847419977	0	0	1.446300864	14.58158684	178.4185638	1.0
3	-2.847419977	0	0	1.525438666	14.36586761	178.6215668	1.0
4	-2.847419977	0	0	1.642106295	14.16391468	178.8633728	1.0
[RightHand]
1	-2.258270025	0	0	1.760693312	8.275785446	-179.9858704	1.0
2	-2.258270025	0	0	1.665759921	8.1238451	-179.7570496	1.0
3	-2.258270025	0	0	1.715862989	8.01812458	-179.7589569	1.0
4	-2.258270025	0	0	1.779473186	7.912207603	-180.052887	1.0
[LeftUpLeg]
1	0.9119900465	0	0	3.33453083	-2.881834984	90.77373505	1.0
2	0.9119900465	0	0	3.548849106	-2.5573771	90.83692169	1.0
3	0.9119900465	0	0	3.96499753	-2.767481327	90.76937866	1.0
4	0.9119900465	0	0	4.054387093	-2.923826933	90.75843811	1.0
[LeftLeg]
1	0	-4.371409893	0	1.878830433	-6.682664871	89.1428833	1.0
2	0	-4.371409893	0	1.510888577	-6.748835564	89.14112091	1.0
3	0	-4.371409893	0	0.9030653238	-6.314961433	89.15575409	1.0
4	0	-4.371409893	0	0.5560999513	-6.082290649	89.21653748	1.0
[LeftFoot]
1	0	-3.918009996	0	-80.90683746	111.3780594	-39.57527161	1.0
2	0	-3.918009996	0	-80.88254547	110.9700394	-39.63790512	1.0
3	0	-3.918009996	0	-80.13223267	110.8101807	-39.20922852	1.0
4	0	-3.918009996	0	-80.01991272	110.7402573	-39.09859467	1.0
[LeftToeBase]
1	0	-0.5927900076	1.367989898	0	0	0	1.0
2	0	-0.5927900076	1.367989898	0	0	0	1.0
3	0	-0.5927900076	1.367989898	0	0	0	1.0
4	0	-0.5927900076	1.367989898	0	0	0	1.0
[RightUpLeg]
1	-0.9119900465	0	0	2.533873796	2.622172356	94.28440857	1.0
2	-0.9119900465	0	0	2.67171979	2.982750177	94.30986786	1.0
3	-0.9119900465	0	0	2.73139739	3.151298761	94.26357269	1.0
4	-0.9119900465	0	0	2.604686499	2.989903927	94.24647522	1.0
[RightLeg]
1	0	-4.371409893	0	0.6501177549	1.486363411	90.84371185	1.0
2	0	-4.371409893	0	0.3396339715	1.289750218	90.82636261	1.0
3	0	-4.371409893	0	0.3424035907	1.340538859	90.75822449	1.0
4	0	-4.371409893	0	0.3583400846	1.54596889	90.74490356	1.0
[RightFoot]
1	0	-3.918009996	0	31.46334648	59.82495117	63.18094254	1.0
2	0	-3.918009996	0	31.94500351	59.870121	63.42009354	1.0
3	0	-3.918009996	0	32.24848175	59.8983078	63.75143051	1.0
4	0	-3.918009996	0	32.43630981	59.95498657	64.0464859	1.0
[RightToeBase]
1	0	-0.5927900076	1.367989898	0	0	0	1.0
2	0	-0.5927900076	1.367989898	0	0	0	1.0
3	0	-0.5927900076	1.367989898	0	0	0	1.0
4	0	-0.5927900076	1.367989898	0	0	0	1.0
[EndOfFile]
